<?xml version="1.0" encoding="UTF-8"?>
<svg version="1.1" xmlns="http://www.w3.org/2000/svg" width="133" height="133">
<path d="M0 0 C1.71378907 1.16467178 3.40977856 2.3560133 5.0859375 3.57421875 C6.80266283 4.5546647 8.53012923 5.51685808 10.2734375 6.44921875 C11.54451906 7.15710655 12.81545423 7.86525772 14.0859375 8.57421875 C12.76136796 12.54792738 10.36043157 13.48795506 6.90234375 15.4609375 C6.26439377 15.83476059 5.62644379 16.20858368 4.96916199 16.59373474 C3.58929891 17.40121648 2.20710269 18.20472142 0.82287598 19.00469971 C-2.8642769 21.13620236 -6.53425445 23.29697947 -10.20703125 25.453125 C-11.32127975 26.10556183 -11.32127975 26.10556183 -12.45803833 26.7711792 C-19.08399544 30.65632385 -25.63478731 34.65339637 -32.1640625 38.69921875 C-42.46989198 45.07412418 -52.80280682 51.40163833 -63.17260742 57.671875 C-63.74571152 58.01842133 -64.31881561 58.36496765 -64.9092865 58.72201538 C-65.75083031 59.23086777 -65.75083031 59.23086777 -66.609375 59.75 C-70.38998824 62.03672481 -74.15834224 64.33976913 -77.90625 66.6796875 C-78.96453003 67.33432983 -78.96453003 67.33432983 -80.04418945 68.00219727 C-81.80836552 69.095028 -83.56661646 70.19740898 -85.32421875 71.30078125 C-87.9140625 72.57421875 -87.9140625 72.57421875 -90.9140625 71.57421875 C-91.1698878 64.28137829 -91.36484363 56.98951661 -91.48399639 49.69308472 C-91.54121471 46.30402272 -91.61866939 42.91804682 -91.74389648 39.53076172 C-91.8778159 35.62776268 -91.93980895 31.7291008 -91.98828125 27.82421875 C-92.04505539 26.61870361 -92.10182953 25.41318848 -92.1603241 24.17114258 C-92.16403598 19.07547055 -92.1551392 15.88491327 -88.55239868 12.08007812 C-85.75402616 10.02322622 -82.94155707 8.27099861 -79.9140625 6.57421875 C-78.39070688 5.5780653 -76.86953578 4.57855492 -75.3515625 3.57421875 C-71.9140625 1.57421875 -71.9140625 1.57421875 -69.9140625 1.57421875 C-68.16712443 23.19817654 -70.41917634 37.59440894 -81.9140625 56.57421875 C-80.79462757 54.84865168 -79.679606 53.12022108 -78.56640625 51.390625 C-77.94499756 50.42842041 -77.32358887 49.46621582 -76.68334961 48.47485352 C-75.09559411 45.87182838 -73.76422013 43.27119225 -72.4765625 40.51171875 C-68.4913929 33.89404808 -61.84906732 30.64732389 -55.31982422 26.94433594 C-51.9197915 25.00796658 -48.56191165 23.00284386 -45.20043945 21.00048828 C-43.37512638 19.91907577 -41.54412877 18.84720459 -39.70776367 17.78466797 C-35.05175607 15.08350327 -30.47579905 12.32162166 -26.00660706 9.31855774 C-24.3464222 8.20624344 -22.67211105 7.11510921 -20.99780273 6.02416992 C-18.85826626 4.62618187 -16.74157139 3.19242949 -14.65258789 1.7199707 C-9.00402177 -1.9090275 -6.14552816 -3.3237438 0 0 Z " fill="#4150A0" transform="translate(104.9140625,56.42578125)"/>
<path d="M0 0 C6.0510783 0.86443976 8.03252329 1.2243936 12.82421875 4.21875 C13.9212915 4.89534668 15.01836426 5.57194336 16.14868164 6.26904297 C17.32833255 7.01262427 18.50793746 7.75627854 19.6875 8.5 C20.92425379 9.26707109 22.16181817 10.03283664 23.40014648 10.79736328 C25.97736179 12.3900321 28.5509861 13.98827387 31.12207031 15.59082031 C36.6545617 19.03437602 42.22206512 22.42016396 47.79299927 25.80105591 C48.96980565 26.51528238 50.14630073 27.23002203 51.32247925 27.94528198 C61.46367501 34.1121414 71.68942 40.12093776 82 46 C81 49 81 49 79.0222168 50.18261719 C76.24856755 51.38376864 73.47525227 52.58183415 70.6875 53.75 C69.72392578 54.17410156 68.76035156 54.59820312 67.76757812 55.03515625 C66.83751953 55.43089844 65.90746094 55.82664063 64.94921875 56.234375 C64.09674561 56.59756836 63.24427246 56.96076172 62.3659668 57.33496094 C58.42101604 58.44382956 56.5539326 57.29241052 52.97900391 55.40527344 C51.80833492 54.72879537 50.6410289 54.04647504 49.4765625 53.359375 C48.85276703 52.99531555 48.22897156 52.6312561 47.58627319 52.25616455 C46.2686266 51.48526791 44.95246293 50.71183171 43.63769531 49.93603516 C41.6431561 48.76069897 39.6423388 47.59665849 37.640625 46.43359375 C36.35637399 45.68036371 35.07250728 44.92647798 33.7890625 44.171875 C33.19823883 43.82896423 32.60741516 43.48605347 31.99868774 43.13275146 C25.95694043 39.54599697 21.12211017 36.03200931 17.7890625 29.69921875 C17.26699219 28.72275391 16.74492187 27.74628906 16.20703125 26.74023438 C15.42392578 25.22913086 15.42392578 25.22913086 14.625 23.6875 C14.07972656 22.66076172 13.53445312 21.63402344 12.97265625 20.57617188 C11.63672909 18.05666013 10.31304834 15.53148839 9 13 C10.43641085 16.04218216 11.87432554 19.08365123 13.3125 22.125 C13.71662109 22.9809375 14.12074219 23.836875 14.53710938 24.71875 C14.93349609 25.55664062 15.32988281 26.39453125 15.73828125 27.2578125 C16.1245166 28.08442383 16.51075195 28.91103516 16.90869141 29.76269531 C18.04162916 32.16664896 18.04162916 32.16664896 19.79296875 34.9921875 C21.58152267 39.44910179 22.29816498 43.3049394 21 48 C18.31879383 51.21952932 15.11823036 53.35138886 11.625 55.625 C10.73554688 56.24761719 9.84609375 56.87023438 8.9296875 57.51171875 C2.4192136 62 2.4192136 62 0 62 C0 41.54 0 21.08 0 0 Z M5 6 C6 8 6 8 6 8 Z M6 8 C7 10 7 10 7 10 Z M7 10 C8 12 8 12 8 12 Z " fill="#575EC4" transform="translate(14,5)"/>
<path d="M0 0 C1.65269501 20.45739786 -0.0607305 34.71801179 -10.78491211 52.84057617 C-12.12786479 55.06754679 -12.12786479 55.06754679 -13 58 C-13.66 58 -14.32 58 -15 58 C-15.4021875 59.299375 -15.4021875 59.299375 -15.8125 60.625 C-16.97111987 63.91791964 -18.38209839 66.91127875 -20 70 C-20.33 70 -20.66 70 -21 70 C-21.2558253 62.70715954 -21.45078113 55.41529786 -21.56993389 48.11886597 C-21.62715221 44.72980397 -21.70460689 41.34382807 -21.82983398 37.95654297 C-21.9637534 34.05354393 -22.02574645 30.15488205 -22.07421875 26.25 C-22.13099289 25.04448486 -22.18776703 23.83896973 -22.2462616 22.59692383 C-22.24997348 17.5012518 -22.2410767 14.31069452 -18.63833618 10.50585938 C-15.83996366 8.44900747 -13.02749457 6.69677986 -10 5 C-8.47664438 4.00384655 -6.95547328 3.00433617 -5.4375 2 C-2 0 -2 0 0 0 Z " fill="#46106C" transform="translate(35,58)"/>
<path d="M0 0 C1.32 0 2.64 0 4 0 C6.3049881 4.36093327 8.58222336 8.73490679 10.8359375 13.12255859 C11.60468614 14.6100743 12.38060753 16.09390759 13.1640625 17.57373047 C21.48874037 33.32053822 21.48874037 33.32053822 20.86621094 39.87646484 C18.95871579 44.55273114 14.71485028 46.96307158 10.625 49.625 C9.73554688 50.24761719 8.84609375 50.87023438 7.9296875 51.51171875 C1.4192136 56 1.4192136 56 -1 56 C-1.02528903 48.34619856 -1.04284104 40.69240783 -1.05493164 33.03857422 C-1.0599703 30.43310137 -1.0668013 27.82763137 -1.07543945 25.22216797 C-1.08752544 21.48404236 -1.09323288 17.74595403 -1.09765625 14.0078125 C-1.10281754 12.83695099 -1.10797882 11.66608948 -1.11329651 10.45974731 C-1.11337204 9.37877777 -1.11344757 8.29780823 -1.11352539 7.18408203 C-1.115746 6.22921906 -1.11796661 5.27435608 -1.12025452 4.29055786 C-1 2 -1 2 0 0 Z " fill="#7326A8" transform="translate(15,11)"/>
<path d="M0 0 C15.55555556 8.88888889 15.55555556 8.88888889 22.79296875 13.65234375 C25.04094197 15.13837545 25.04094197 15.13837545 28 16 C26.7050818 19.88475459 25.20613104 20.40800277 21.7578125 22.5390625 C20.15873047 23.53292969 20.15873047 23.53292969 18.52734375 24.546875 C17.40457031 25.23265625 16.28179687 25.9184375 15.125 26.625 C14.00996094 27.31851563 12.89492188 28.01203125 11.74609375 28.7265625 C3.45114701 33.84961766 3.45114701 33.84961766 0 35 C0 23.45 0 11.9 0 0 Z " fill="#5D28A0" transform="translate(40,49)"/>
<path d="M0 0 C0.80872559 0.59047119 0.80872559 0.59047119 1.63378906 1.19287109 C1.07691406 1.29857422 0.52003906 1.40427734 -0.05371094 1.51318359 C-2.80705875 2.32244461 -4.9206481 3.56921826 -7.36621094 5.06787109 C-8.21183594 5.58091797 -9.05746094 6.09396484 -9.92871094 6.62255859 C-12.34052674 8.12876539 -12.34052674 8.12876539 -14.38964844 9.74755859 C-16.51051996 11.2983935 -18.59573979 12.36931546 -20.99121094 13.44287109 C-22.15523438 13.97654297 -22.15523438 13.97654297 -23.34277344 14.52099609 C-25.36621094 15.19287109 -25.36621094 15.19287109 -27.36621094 14.19287109 C-23.89160701 11.99938481 -20.40462594 9.82732191 -16.90478516 7.67431641 C-15.71596557 6.93889048 -14.53069426 6.19769642 -13.34912109 5.45068359 C-11.65070994 4.37830309 -9.93828992 3.32821103 -8.22558594 2.27880859 C-7.19916992 1.63991699 -6.17275391 1.00102539 -5.11523438 0.34277344 C-2.36621094 -0.80712891 -2.36621094 -0.80712891 0 0 Z " fill="#4CA8DA" transform="translate(101.3662109375,54.80712890625)"/>
<path d="M0 0 C0.33 0 0.66 0 1 0 C1.33 10.56 1.66 21.12 2 32 C3.32 30.35 4.64 28.7 6 27 C5.39254603 31.85963179 3.27241033 35.7405518 1 40 C0.67 40 0.34 40 0 40 C0 26.8 0 13.6 0 0 Z " fill="#2C104B" transform="translate(14,88)"/>
<path d="M0 0 C-0.89203125 0.51949219 -1.7840625 1.03898437 -2.703125 1.57421875 C-3.88571654 2.27814229 -5.06799157 2.98259776 -6.25 3.6875 C-6.83652344 4.02716797 -7.42304687 4.36683594 -8.02734375 4.71679688 C-11.84402171 7.01109205 -14.43148029 9.36974071 -17 13 C-16.74225297 9.2810786 -16.55378375 7.52057626 -13.78515625 4.91796875 C-12.88667969 4.34691406 -11.98820312 3.77585937 -11.0625 3.1875 C-10.16660156 2.60355469 -9.27070312 2.01960938 -8.34765625 1.41796875 C-4.90342643 -0.66232314 -3.85061955 -1.15518587 0 0 Z " fill="#663690" transform="translate(51,86)"/>
<path d="M0 0 C2.3431213 0.25561323 4.67843403 0.59270772 7 1 C7.33 1.66 7.66 2.32 8 3 C7.34 3 6.68 3 6 3 C5.67 3.99 5.34 4.98 5 6 C3.68 6 2.36 6 1 6 C0.67 6.66 0.34 7.32 0 8 C0 5.36 0 2.72 0 0 Z " fill="#A85BD3" transform="translate(14,5)"/>
<path d="M0 0 C3.7910119 1.44950455 7.3874638 3.15172566 11 5 C10.67 5.99 10.34 6.98 10 8 C7.04785514 7.01595171 5.33366933 6.01178391 3 4 C3 3.34 3 2.68 3 2 C2.01 2 1.02 2 0 2 C0 1.34 0 0.68 0 0 Z " fill="#50C2E3" transform="translate(85,46)"/>
<path d="M0 0 C-1.33727591 2.67455183 -2.73288323 2.98881385 -5.4375 4.1875 C-6.24058594 4.55230469 -7.04367188 4.91710937 -7.87109375 5.29296875 C-10 6 -10 6 -12 5 C-10.75747321 4.15556432 -9.5056114 3.3248542 -8.25 2.5 C-7.55390625 2.0359375 -6.8578125 1.571875 -6.140625 1.09375 C-4 0 -4 0 0 0 Z " fill="#4E80CB" transform="translate(86,64)"/>
<path d="M0 0 C0 0.66 0 1.32 0 2 C-6.75 6 -6.75 6 -9 6 C-9 5.34 -9 4.68 -9 4 C-2.25 0 -2.25 0 0 0 Z " fill="#62398A" transform="translate(57,103)"/>
<path d="M0 0 C3.99500618 1.3697164 6.80009492 3.25722422 10 6 C6.05879291 5.43697042 3.2491277 4.3208055 0 2 C0 1.34 0 0.68 0 0 Z " fill="#5387D3" transform="translate(62,32)"/>
<path d="M0 0 C0.33 0.99 0.66 1.98 1 3 C-2.96 4.98 -2.96 4.98 -7 7 C-5.66667905 3.00003714 -3.5042173 2.16217663 0 0 Z " fill="#462C63" transform="translate(36,114)"/>
<path d="M0 0 C0.7734375 0.61875 0.7734375 0.61875 1.5625 1.25 C0.985 1.37375 0.4075 1.4975 -0.1875 1.625 C-2.47310051 2.16843033 -2.47310051 2.16843033 -4.5 3.375 C-6.4375 4.25 -6.4375 4.25 -9.4375 3.25 C-3.0375 -0.93461538 -3.0375 -0.93461538 0 0 Z " fill="#56CBE7" transform="translate(101.4375,54.75)"/>
<path d="M0 0 C3.59391114 1.33488128 6.75490696 2.96022723 10 5 C9.01 5.495 9.01 5.495 8 6 C6.0546875 5.22265625 6.0546875 5.22265625 3.875 4.0625 C3.15054688 3.68222656 2.42609375 3.30195312 1.6796875 2.91015625 C1.12539062 2.60980469 0.57109375 2.30945312 0 2 C0 1.34 0 0.68 0 0 Z " fill="#4DAADD" transform="translate(75,40)"/>
<path d="M0 0 C3 1 3 1 4.25 2.8125 C5.11637742 5.33943414 4.88492145 6.52221994 4 9 C0 2.25 0 2.25 0 0 Z " fill="#935BCA" transform="translate(25,20)"/>
</svg>
